<svg xmlns="http://www.w3.org/2000/svg" xmlns:xlink="http://www.w3.org/1999/xlink" version="1.1" x="0px" y="0px" viewBox="0 0 100 125" enable-background="new 0 0 100 100" xml:space="preserve"><path d="M76.828,53.21c-1.132,0-2.207,0.297-3.162,0.855c-0.189-0.455-0.445-0.874-0.733-1.269  c7.376-7.021,13.757-15.754,13.757-24.994c0-11.858-9.648-21.508-21.51-21.508c-5.735,0-11.162,2.263-15.18,6.272  c-4.019-4.011-9.445-6.272-15.182-6.272c-11.859,0-21.509,9.648-21.509,21.508c0,13.029,12.666,25.057,22.948,32.679  c-0.037,0.267-0.061,0.537-0.062,0.817c0,2.913-0.021,8.944-0.014,8.951c0,6.463,2.63,12.332,6.88,16.582  c4.242,4.242,10.111,6.873,16.574,6.873c12.94,0,23.462-10.521,23.462-23.462l0.007-10.755c-0.007-1.676-0.658-3.26-1.838-4.44  C80.08,53.86,78.496,53.21,76.828,53.21z M38.012,57.239C28.406,50.05,16.926,39.1,16.926,27.803  c0-9.866,8.025-17.893,17.893-17.893c5.348,0,10.374,2.366,13.789,6.492c0.688,0.827,2.1,0.827,2.785,0  c3.415-4.126,8.439-6.492,13.789-6.492c9.865,0,17.893,8.026,17.893,17.893c0,8.211-6.082,16.245-13.094,22.785  c-0.66-0.235-1.364-0.377-2.104-0.377c-1.309-0.007-2.524,0.403-3.529,1.096c-0.27-0.452-0.588-0.884-0.969-1.266  c-1.182-1.181-2.766-1.831-4.435-1.831c-0.946,0-1.845,0.205-2.673,0.594v-8.697c-0.007-1.676-0.657-3.245-1.838-4.439  c-1.195-1.181-2.766-1.832-4.439-1.824c-1.677-0.021-3.261,0.645-4.441,1.824c-1.182,1.181-1.838,2.758-1.831,4.434v16.235  c-1.812-0.481-3.578-0.368-4.985,0.402C38.474,56.883,38.237,57.056,38.012,57.239z M79.485,70.251  c-0.007,10.939-8.909,19.842-19.841,19.842c-10.946,0-19.85-8.901-19.85-19.834c0,0,0.021-6.046,0.021-8.959  c0-0.92,0.382-1.229,0.672-1.394c0.629-0.347,1.854-0.367,3.225,0.255l0.006,7.417c0,0.495,0.199,0.948,0.523,1.272  c0.333,0.332,0.785,0.53,1.28,0.53c1.004,0,1.812-0.807,1.812-1.811V40.106c-0.008-0.715,0.275-1.379,0.777-1.881  c0.51-0.51,1.16-0.778,1.881-0.778c1.471,0,2.666,1.182,2.666,2.651v23.023c0,0.989,0.813,1.803,1.803,1.803  c1.004,0,1.817-0.813,1.811-1.811v-8.626c0-1.472,1.195-2.666,2.666-2.666s2.666,1.194,2.666,2.666v1.979  c-0.008,0.007,0,0.016-0.008,0.021l0.008,0.007v6.618c0,1.005,0.806,1.811,1.811,1.811c0.989,0,1.803-0.813,1.803-1.803v-6.633  c0-1.472,1.195-2.666,2.666-2.666c1.463,0.007,2.666,1.194,2.658,2.659v6.632c0,1.005,0.807,1.811,1.811,1.811  c0.997-0.007,1.803-0.813,1.811-1.811l-0.007-3.627c0.007-0.714,0.283-1.386,0.785-1.888s1.174-0.778,1.881-0.778  c1.421,0.007,2.659,1.245,2.666,2.666v10.765H79.485z"/><text x="0" y="115" fill="#000000" font-size="5px" font-weight="bold" font-family="'Helvetica Neue', Helvetica, Arial-Unicode, Arial, Sans-serif">Created by Sergey Demushkin</text><text x="0" y="120" fill="#000000" font-size="5px" font-weight="bold" font-family="'Helvetica Neue', Helvetica, Arial-Unicode, Arial, Sans-serif">from the Noun Project</text></svg>